<svg aria-hidden="true" style="position:absolute;width:0;height:0"
xmlns="http://www.w3.org/2000/svg" overflow="hidden">   
    <defs>
        <!-- Envelope -->
        <symbol id="envelope" viewBox="0 0 16 12">
            <path fill="currentColor" d="M14.5 0h-13C.67 0 0 .67 0 1.5v9c0 .83.67 1.5 1.5 1.5h13c.83 0 1.5-.67 1.5-1.5v-9c0-.83-.67-1.5-1.5-1.5Zm0 1a.5.5 0 0 1 .2.04L8 6.84l-6.7-5.8A.5.5 0 0 1 1.5 1h13Zm0 10h-13a.5.5 0 0 1-.5-.5V2.1l6.67 5.78a.5.5 0 0 0 .66 0L15 2.1v8.4a.5.5 0 0 1-.5.5Z"/>
        </symbol>
        <!-- Smartphone -->
        <symbol id="smartphone" viewBox="0 0 10 16">
            <path fill="currentColor" d="M8.5 0h-7C.67 0 0 .67 0 1.5v13c0 .83.67 1.5 1.5 1.5h7c.83 0 1.5-.67 1.5-1.5v-13C10 .67 9.33 0 8.5 0Zm-7 1h7c.28 0 .5.22.5.5V12H1V1.5c0-.28.22-.5.5-.5Zm7 14h-7a.5.5 0 0 1-.5-.5V13h8v1.5a.5.5 0 0 1-.5.5Z"/>
            <path fill="currentColor" d="M2.35 13.74c.2.18.2.48 0 .66a.53.53 0 0 1-.7 0 .45.45 0 0 1 0-.66c.2-.18.5-.18.7 0Z"/>
        </symbol>
        <!-- Close button -->
        <symbol id="close" viewBox="0 0 18 18">
            <path fill="currentColor" d="M15 4.1 13.9 3 9.5 7.4 5.1 3 4 4.1l4.4 4.4L4 12.9 5.1 14l4.4-4.4 4.4 4.4 1.1-1.1-4.4-4.4L15 4.1Z"/>
        </symbol>
        <!-- Icon send -->
        <symbol id="icon-send" viewBox="0 0 24 24">
            <path fill="currentColor" d="M24 0 0 13.5l7.67 2.84L19.5 5.25l-9 12.14V24l4.3-5.02L20.25 21 24 0Z"/>
        </symbol>
        <!-- Person -->
        <symbol id="person" viewBox="0 0 18 18">
            <path fill="currentColor" d="M9 9a3 3 0 1 0 0-6 3 3 0 0 0 0 6Zm0 1.5c-2 0-6 1-6 3v.75c0 .41.34.75.75.75h10.5c.41 0 .75-.34.75-.75v-.75c0-2-4-3-6-3Z"/>
        </symbol>
        <!-- Phone -->
        <symbol id="phone" viewBox="0 0 18 18">
            <path fill="currentColor" d="m14 11.12-1.84-.2c-.44-.06-.88.1-1.19.4l-1.33 1.34a10.89 10.89 0 0 1-4.77-4.77l1.34-1.34c.31-.31.46-.75.41-1.19l-.2-1.82a1.45 1.45 0 0 0-1.45-1.28H3.72c-.82 0-1.5.68-1.45 1.5a12.3 12.3 0 0 0 11.5 11.5c.82.05 1.5-.63 1.5-1.45v-1.25c0-.74-.54-1.35-1.27-1.44Z"/>
        </symbol>
        <!-- Email -->
        <symbol id="email" viewBox="0 0 18 18">
            <path fill="currentColor" d="M15 3H3c-.83 0-1.5.67-1.5 1.5v9c0 .82.67 1.5 1.5 1.5h12c.82 0 1.5-.68 1.5-1.5v-9c0-.83-.68-1.5-1.5-1.5Zm-.3 3.19L9.4 9.5a.76.76 0 0 1-.8 0L3.3 6.2a.64.64 0 1 1 .68-1.08L9 8.25l5.03-3.14a.64.64 0 1 1 .67 1.08Z"/>
        </symbol>
        <!-- Check icon -->
        <symbol id="check-icon" viewBox="0 0 16 15">
            <rect width="16" height="15" fill="#2196F3" rx="2"/>
            <path fill="#fff" stroke="#fff" stroke-width=".2" d="m3.96 7.75-.07-.06-.07.06-.89.84-.08.07.08.08 3.5 3.33.07.07.06-.07 7.5-7.16.08-.07-.07-.07-.88-.84-.07-.07-.07.07-6.55 6.24-2.54-2.42Z"/>
        </symbol>
        <!-- Unchecked icon -->
        <symbol id="unchecked-icon"  viewBox="0 0 16 15">
            <path fill="#212121" d="M14.22 1.67v11.66H1.78V1.67h12.44Zm0-1.67H1.78C.8 0 0 .75 0 1.67v11.66C0 14.25.8 15 1.78 15h12.44c.98 0 1.78-.75 1.78-1.67V1.67C16 .75 15.2 0 14.22 0Z"/>
        </symbol>
    </defs>
</svg>