<svg aria-hidden="true" style="position:absolute;width:0;height:0"
xmlns="http://www.w3.org/2000/svg" overflow="hidden">   
    <defs>
        <!-- Antenna -->
        <symbol id="antenna" viewBox="0 0 70 70" fill="none" >
            <path d="M67.3163 48.3385L48.8468 29.7337L50.8966 19.6373C51.4256 19.8438 51.9879 19.9517 52.5556 19.9558H52.5696C55.1777 19.9866 57.3169 17.8974 57.3479 15.2893C57.3788 12.6812 55.2894 10.542 52.6813 10.5111C50.0732 10.4803 47.934 12.5695 47.9031 15.1776C47.8965 15.7357 47.9888 16.2905 48.176 16.8163L37.326 18.1405L19.6276 0.35C19.4105 0.128479 19.1141 0.00247917 18.804 0C18.4977 0.00160417 18.2044 0.123521 17.9873 0.3395L14.6786 3.6295C14.2232 4.08508 14.2232 4.82358 14.6786 5.27917L16.459 7.08517C9.56162 19.7681 11.8019 35.4741 21.9703 45.7228C22.0636 45.8121 22.1718 45.8843 22.29 45.9363C22.2165 46.3311 22.1781 46.7317 22.1756 47.1333V60.6667H8.17562C4.95562 60.6705 2.34608 63.28 2.34229 66.5V68.8333C2.34229 69.4776 2.86466 70 3.50895 70H57.1756C57.8199 70 58.3423 69.4776 58.3423 68.8333V66.5C58.3385 63.28 55.729 60.6705 52.509 60.6667H38.509V54.6688C40.7021 55.1288 42.9367 55.3633 45.1776 55.3688C50.5548 55.363 55.8464 54.0225 60.5776 51.4675L62.3673 53.2677C62.5844 53.4892 62.8808 53.6152 63.191 53.6177C63.4972 53.6161 63.7905 53.4941 64.0076 53.2782L67.3163 49.9882C67.7717 49.5326 67.7717 48.7941 67.3163 48.3385ZM50.9246 13.6348C51.8383 12.726 53.3157 12.7301 54.2244 13.6437C55.1332 14.5574 55.1291 16.0348 54.2155 16.9435C53.7781 17.3785 53.1864 17.6226 52.5695 17.6225H52.5625C51.2739 17.6158 50.2345 16.5658 50.2412 15.2771C50.2445 14.6602 50.4918 14.0699 50.9291 13.6348H50.9246ZM48.1783 21.301L46.8693 27.7445L44.298 25.158L48.1783 21.301ZM46.853 19.3282L42.653 23.5037L39.4038 20.237L46.853 19.3282ZM52.509 63C54.442 63 56.009 64.567 56.009 66.5V67.6667H4.67562V66.5C4.67562 64.567 6.2426 63 8.17562 63H52.509ZM36.1756 58.3333V60.6667H24.509V58.3333H36.1756ZM24.509 56V47.1333C24.509 44.303 27.1258 42 30.3423 42C33.5588 42 36.1756 44.303 36.1756 47.1333V56H24.509ZM38.509 52.29V47.1333C38.509 43.0162 34.8456 39.6667 30.3423 39.6667C27.4306 39.622 24.7079 41.1041 23.165 43.5738C14.2887 34.2249 12.2899 20.2875 18.1805 8.82073L58.872 49.7455C52.5886 52.9419 45.3857 53.8418 38.509 52.29ZM63.2038 50.7943L61.56 49.1412L18.7923 6.11567L17.1415 4.46133L18.7923 2.81633L36.15 20.272C36.1581 20.272 36.1628 20.2872 36.171 20.293L64.8593 49.1493L63.2038 50.7943Z" fill="#212121"/>
            <path d="M30.3528 44.3333H30.3423C28.4093 44.3304 26.84 45.895 26.837 47.8281C26.8341 49.7611 28.3988 51.3304 30.3318 51.3333H30.3423C32.2753 51.3362 33.8446 49.7716 33.8475 47.8386C33.8505 45.9055 32.2858 44.3362 30.3528 44.3333ZM31.1695 48.6605C30.9498 48.8789 30.6522 49.0012 30.3423 49C29.698 48.9966 29.1784 48.4716 29.1817 47.8273C29.1834 47.5189 29.307 47.2237 29.5256 47.0062C29.7428 46.7902 30.036 46.6683 30.3423 46.6667C30.9866 46.67 31.5062 47.195 31.5028 47.8393C31.5012 48.1477 31.3776 48.4429 31.159 48.6605H31.1695Z" fill="#2196F3"/>
        </symbol>
        <!-- Clock -->
        <symbol id="clock" fill="none" viewBox="0 0 70 70">
        <g clip-path="url(#a)">
            <path fill="#212121" d="M68.461 33.471C68.458 14.982 53.466-.004 34.975 0 16.485.004 1.5 14.996 1.504 33.486A33.479 33.479 0 0 0 24.799 65.37c.133.042.27.063.41.063.263 0 .521-.071.748-.205.296-.175.516-.453.62-.78l8.454-26.797a4.184 4.184 0 1 0-1.837-7.95L22.025 18.53a1.395 1.395 0 0 0-1.972 1.973l11.163 11.176a4.104 4.104 0 0 0 1.173 5.051l-8.055 25.535C8.414 56.4.262 38.74 6.126 22.82 11.991 6.9 29.65-1.252 45.571 4.613c15.92 5.864 24.072 23.524 18.207 39.444A30.72 30.72 0 0 1 47.455 61.5l-.87-4.1a1.394 1.394 0 0 0-2.294-.752l-8.393 7.494a1.394 1.394 0 0 0 .505 2.372l10.716 3.42a1.394 1.394 0 0 0 1.791-1.619l-.855-4.022a33.37 33.37 0 0 0 20.406-30.82Zm-33.478-1.394a1.395 1.395 0 1 1 0 2.79 1.395 1.395 0 0 1 0-2.79Zm4.594 32.515 4.778-4.262 1.319 6.213-6.097-1.951Z"/>
            <path fill="#2196F3" d="M33.588 6.967v2.79a1.395 1.395 0 1 0 2.79 0v-2.79a1.395 1.395 0 0 0-2.79 0ZM8.479 32.077a1.395 1.395 0 0 0 0 2.79h2.79a1.395 1.395 0 1 0 0-2.79h-2.79Zm53.008 2.79a1.395 1.395 0 1 0 0-2.79h-2.79a1.395 1.395 0 0 0 0 2.79h2.79Z"/>
        </g>
        <defs>
            <clipPath id="a">
            <path fill="#fff" d="M0 0h70v70H0z"/>
            </clipPath>
        </defs>
        </symbol>
        <!-- Diagram -->
        <symbol id="diagram" fill="none" viewBox="0 0 70 70">
        <g clip-path="url(#a)">
            <path fill="#2196F3" d="M32.65 32.735h2.332V43.23H32.65V32.735Zm9.328 4.665h2.332v5.83h-2.332V37.4Zm-18.657 3.498h2.332v2.332h-2.332v-2.332Zm-6.996-1.167h2.332v3.498h-2.332v-3.498Z"/>
            <path fill="#212121" d="M3.498 61.886h55.97a3.498 3.498 0 0 0 3.499-3.498v-4.664a3.498 3.498 0 0 0-3.498-3.498h-1.166v-29.08l6.623-6.274a3.518 3.518 0 1 0-1.633-1.668l-4.99 4.73v-2.69a3.498 3.498 0 0 0-3.498-3.498H8.162a3.498 3.498 0 0 0-3.498 3.498v34.982H3.498A3.498 3.498 0 0 0 0 53.724v4.664a3.498 3.498 0 0 0 3.498 3.498ZM66.465 10.58a1.166 1.166 0 1 1 0 2.332 1.166 1.166 0 0 1 0-2.332ZM6.996 15.244c0-.644.522-1.166 1.166-1.166h46.643c.644 0 1.166.522 1.166 1.166v4.897l-2.332 2.216v-4.78c0-.645-.523-1.167-1.167-1.167H10.495c-.644 0-1.167.522-1.167 1.166v29.152c0 .644.523 1.166 1.167 1.166h41.977c.645 0 1.167-.522 1.167-1.166V25.565l2.332-2.21v26.87H6.996v-34.98Zm10.495 15.159a3.498 3.498 0 1 0 2.422 6.012l4.053 2.034a1.167 1.167 0 0 0 1.392-.268l8.616-9.694 8.47 6.347c.455.34 1.089.304 1.501-.086l7.361-6.973v17.787H11.661v-26.82h39.645v5.82l-8.25 7.813-8.54-6.403a1.167 1.167 0 0 0-1.572.157l-8.734 9.828-3.265-1.633c.023-.14.038-.281.044-.423a3.498 3.498 0 0 0-3.498-3.498Zm1.166 3.498a1.166 1.166 0 1 1-2.332 0 1.166 1.166 0 0 1 2.332 0Zm6.996 18.657h11.66v1.166c0 .644-.521 1.166-1.165 1.166h-9.329a1.166 1.166 0 0 1-1.166-1.166v-1.166Zm-23.32 1.166c0-.644.521-1.166 1.165-1.166h19.823v1.166a3.498 3.498 0 0 0 3.498 3.498h9.329a3.498 3.498 0 0 0 3.498-3.498v-1.166h19.823c.644 0 1.166.522 1.166 1.166v4.664c0 .644-.522 1.166-1.166 1.166H3.499a1.166 1.166 0 0 1-1.167-1.166v-4.664Z"/>
        </g>
        <defs>
            <clipPath id="a">
            <path fill="#fff" d="M0 0h70v70H0z"/>
            </clipPath>
        </defs>
        </symbol>
        <!-- Astronaut -->
        
        <symbol id="astronaut" fill="none" viewBox="0 0 70 70">
            <path fill="#2196F3" d="M69.943 9.896a1.168 1.168 0 0 0-.941-.793l-4.18-.608-1.87-3.787c-.391-.798-1.7-.798-2.091 0l-1.87 3.787-4.18.608a1.167 1.167 0 0 0-.648 1.99l3.026 2.948-.714 4.162c-.075.438.105.88.463 1.142.363.263.837.296 1.23.088l3.738-1.966 3.738 1.966a1.168 1.168 0 0 0 1.693-1.23l-.714-4.162 3.025-2.949a1.17 1.17 0 0 0 .295-1.196ZM64.556 12.8c-.275.267-.4.655-.335 1.033l.417 2.437-2.188-1.15a1.165 1.165 0 0 0-1.088 0l-2.188 1.15.417-2.437a1.168 1.168 0 0 0-.334-1.033l-1.773-1.727 2.448-.355c.38-.055.708-.294.879-.639l1.094-2.216 1.094 2.216c.17.345.498.584.879.639l2.448.355-1.77 1.727Zm-7.389 32.092h-2.333v2.334h2.333v-2.334Zm0 4.668h-2.333v2.332h2.333V49.56Zm2.333-2.334h-2.333v2.333H59.5v-2.333Zm-4.666 0H52.5v2.333h2.334v-2.333ZM49 57.726h-2.333v2.333H49v-2.333Zm0 4.667h-2.333v2.333H49v-2.333Zm2.334-2.333H49v2.333h2.334v-2.334Zm-4.667 0h-2.334v2.333h2.334v-2.334ZM35 53.06h-2.333v2.333H35v-2.334Zm0 4.666h-2.333v2.333H35v-2.333Zm2.333-2.334H35v2.334h2.333v-2.334Zm-4.666 0h-2.334v2.334h2.334v-2.334Zm-19.834-42H10.5v2.333h2.333v-2.333Zm0 4.667H10.5v2.333h2.333V18.06Zm2.333-2.334h-2.333v2.334h2.333v-2.334Zm-4.666 0H8.166v2.334H10.5v-2.334Z"/>
            <path fill="#212121" d="M54.063 30.974a3.88 3.88 0 0 0-2.599-1.541 3.886 3.886 0 0 0-2.93.77l-2.74 2.097-.001.002-4.151 3.1-2.97-1.184c5.296-2.376 8.998-7.674 8.998-13.825 0-8.363-6.83-15.167-15.227-15.167S17.215 12.03 17.215 20.393c0 3.031.907 5.85 2.45 8.222l-6.046-.053h-.01c-.019 0-.034.01-.051.01a1.14 1.14 0 0 0-.34.069c-.028.01-.057.016-.084.029-.014.006-.028.007-.042.014L6.02 32.175c-.001 0-.003 0-.003.002l-4.141 1.991a.905.905 0 0 0-.138.077A3.895 3.895 0 0 0 .43 39.268a3.884 3.884 0 0 0 2.31 1.944 3.891 3.891 0 0 0 3.016-.281l3.036-1.614 4.952-2.558 2.968-.017L4.808 48.588c0 .002-.002.002-.003.003l-2.928 2.916a3.607 3.607 0 0 0-1.073 2.577 3.647 3.647 0 0 0 3.652 3.64c.936 0 1.869-.355 2.582-1.062l2.875-2.863 3.808-2.843 1.97 1.962-3.853 3.837-.004.002-2.928 2.917a3.607 3.607 0 0 0-1.073 2.576c0 .973.38 1.889 1.073 2.579a3.65 3.65 0 0 0 2.58 1.061c.935 0 1.87-.354 2.582-1.061l2.93-2.917 4.686-4.667.002-.003 2.21-2.188-.01-.008c.015-.014.035-.019.049-.034l11.3-12.377 7.593 1.08c.055.008.11.012.165.012.14 0 .277-.034.41-.084.038-.014.071-.033.108-.051.042-.021.086-.033.126-.06l7.029-4.666c.026-.018.04-.046.064-.065.028-.022.063-.031.089-.056l2.78-2.605a3.892 3.892 0 0 0 .465-5.166ZM4.66 38.872a1.56 1.56 0 0 1-1.221.113 1.565 1.565 0 0 1-.465-2.755l2.874-1.383.692 2.022.29.85-2.17 1.153Zm7.65-3.998-3.387 1.75-.558-1.633-.402-1.174 4.434-2.189-.087 3.246Zm33.03-14.482c0 2.009-.48 3.904-1.31 5.599l-9.147-4.155a4.07 4.07 0 0 0-1.724-3.035l3.203-10.633c5.2 1.655 8.978 6.507 8.978 12.224Zm-25.788 0c0-7.076 5.784-12.834 12.894-12.834.553 0 1.094.047 1.63.115L30.943 18.07c-.042 0-.081-.013-.125-.013a4.094 4.094 0 0 0-4.096 4.084 4.095 4.095 0 0 0 4.096 4.083c1.52 0 2.832-.838 3.54-2.066l8.45 3.838c-2.352 3.165-6.114 5.228-10.362 5.228-7.11 0-12.894-5.757-12.894-12.833Zm13.03 1.75a1.76 1.76 0 0 1-1.764 1.75 1.759 1.759 0 0 1-1.762-1.75c0-.965.79-1.75 1.762-1.75s1.763.785 1.763 1.75ZM5.391 55.007a1.33 1.33 0 0 1-1.87.002 1.3 1.3 0 0 1 0-1.847l2.105-2.097L7.49 52.92l-2.097 2.088Zm7.03 8.167a1.33 1.33 0 0 1-1.87.002 1.299 1.299 0 0 1 0-1.847l2.106-2.098.88.876.983.978-2.099 2.09Zm7.616-7.588-.003.003-3.86 3.85-.882-.877-.982-.977 3.857-3.84v-.001l.004-.002c.087-.088.142-.193.196-.297.015-.03.044-.056.057-.087.036-.09.042-.187.056-.281.007-.054.03-.104.03-.16 0-.077-.028-.153-.044-.23-.014-.07-.014-.141-.041-.209a1.166 1.166 0 0 0-.2-.301c-.022-.026-.03-.058-.054-.083h-.002s0-.003-.002-.005l-3.515-3.5c-.037-.037-.085-.052-.127-.084a1.122 1.122 0 0 0-.19-.126 1.091 1.091 0 0 0-.204-.07 1.134 1.134 0 0 0-.226-.044 1.142 1.142 0 0 0-.209.01c-.078.01-.151.02-.227.045-.074.023-.139.06-.206.098-.044.024-.093.033-.133.063l-3.88 2.896-1.97-1.963 5.248-5.22 9.538 9.382-2.029 2.01Zm14.917-15.349c-.034-.005-.066.008-.1.006a1.148 1.148 0 0 0-.252.015 1.081 1.081 0 0 0-.404.15c-.065.04-.124.081-.181.134-.028.024-.062.036-.088.064L23.653 51.862l-9.468-9.311 6.197-6.165a1.168 1.168 0 0 0-.83-1.993l-4.854.028.061-3.516 6.79.058a15.2 15.2 0 0 0 10.897 4.596c.957 0 1.89-.1 2.799-.268.087.07.174.14.283.185l5.272 2.1.333 1.659.39 1.937-6.569-.935Zm8.84.39-.685-3.408 3.164-2.363.828 1.1 1.242 1.649-4.55 3.022Zm8.21-6.193-1.832 1.717-2.037-2.704 1.818-1.394c.34-.261.768-.368 1.188-.313.422.06.796.28 1.05.622a1.562 1.562 0 0 1-.187 2.072Z"/>
            <path fill="#212121" d="m29.755 40.565-4.688-4.667a1.166 1.166 0 0 0-1.646 0l-4.687 4.667a1.172 1.172 0 0 0 0 1.654l4.686 4.667a1.166 1.166 0 0 0 1.647 0l4.688-4.667a1.167 1.167 0 0 0 0-1.654Zm-5.51 3.848-3.034-3.02 3.033-3.021 3.035 3.02-3.035 3.02Zm13.302-33.321-.564 2.266c.156.039 3.801.988 3.801 4.7h2.334c0-4.412-3.644-6.486-5.571-6.966Zm5.571 9.3h-2.334v2.333h2.334v-2.333Z"/>
        </symbol>
        <!-- Facebook -->
        <symbol id="facebook" viewBox="0 0 20 20">
            <g clip-path="url(#a)">
            <path fill="currentColor" d="M13.33 3.32h1.83V.14C14.84.1 13.76 0 12.5 0 9.86 0 8.06 1.66 8.06 4.7v2.8h-2.9v3.55h2.9V20h3.56v-8.94h2.79l.44-3.56h-3.23V5.05c0-1.03.28-1.73 1.71-1.73Z"/>
            </g>
            <defs>
                <clipPath id="a">
                <path fill="#fff" d="M0 0h20v20H0z"/>
                </clipPath>
            </defs>
        </symbol>
        <!-- Instagram -->
        <symbol id="instagram" viewBox="0 0 20 20">
            <g fill="currentColor" clip-path="url(#a)">
            <path d="M19.98 5.88a7.3 7.3 0 0 0-.46-2.43 4.88 4.88 0 0 0-1.16-1.77c-.5-.5-1.1-.9-1.77-1.15a7.33 7.33 0 0 0-2.43-.47A68.25 68.25 0 0 0 10.04 0C7.32 0 6.98.01 5.92.06 4.85.1 4.12.28 3.49.52a5 5 0 0 0-1.77 1.16A5 5 0 0 0 .56 3.45 7.33 7.33 0 0 0 .1 5.88 68.25 68.25 0 0 0 .04 10c0 2.72 0 3.06.05 4.12a7.3 7.3 0 0 0 .47 2.43c.25.67.65 1.27 1.16 1.77a5 5 0 0 0 1.77 1.16c.63.24 1.36.41 2.42.46 1.07.05 1.4.06 4.12.06s3.06-.01 4.13-.06a7.3 7.3 0 0 0 2.42-.46 5.12 5.12 0 0 0 2.93-2.93c.24-.64.42-1.36.46-2.43.05-1.06.06-1.4.06-4.12 0-2.71 0-3.05-.05-4.12Zm-1.8 8.17c-.04.97-.2 1.5-.34 1.85a3.32 3.32 0 0 1-1.9 1.9c-.35.14-.89.3-1.86.34-1.05.05-1.37.06-4.04.06A70.3 70.3 0 0 1 6 18.14c-.98-.04-1.5-.2-1.85-.34A3.08 3.08 0 0 1 3 17.05a3.1 3.1 0 0 1-.75-1.14 5.5 5.5 0 0 1-.34-1.86 70.37 70.37 0 0 1-.06-4.04c0-2.67.01-2.99.06-4.04.04-.98.2-1.5.34-1.86.16-.43.41-.82.75-1.14a3.1 3.1 0 0 1 1.15-.75c.35-.14.88-.3 1.86-.34 1.05-.05 1.37-.06 4.03-.06 2.68 0 3 0 4.04.06.98.04 1.5.2 1.86.34.43.16.83.41 1.15.75.33.32.59.71.75 1.14.13.36.3.89.34 1.86.05 1.05.06 1.37.06 4.04s-.01 2.98-.06 4.04Z"/>
            <path d="M10.04 4.86a5.14 5.14 0 1 0 0 10.28 5.14 5.14 0 0 0 0-10.28Zm0 8.47a3.33 3.33 0 1 1 0-6.66 3.33 3.33 0 0 1 0 6.66Zm6.54-8.67a1.2 1.2 0 1 1-2.4 0 1.2 1.2 0 0 1 2.4 0Z"/>
            </g>
            <defs>
                <clipPath id="a">
                <path fill="#fff" d="M0 0h20v20H0z"/>
                </clipPath>
            </defs>
        </symbol>
        <!-- Twitter -->
        <symbol id="twitter" viewBox="0 0 20 20">
            <g clip-path="url(#a)">
            <path fill="currentColor" d="M20 3.8a8.6 8.6 0 0 1-2.36.65c.85-.51 1.5-1.3 1.8-2.27-.8.47-1.67.8-2.6 1a4.1 4.1 0 0 0-7 3.73A11.6 11.6 0 0 1 1.4 2.62 4.13 4.13 0 0 0 2.65 8.1C2 8.1 1.35 7.9.8 7.6v.04c0 2 1.42 3.65 3.29 4.03a4.09 4.09 0 0 1-1.86.07 4.14 4.14 0 0 0 3.84 2.85A8.24 8.24 0 0 1 0 16.3a11.54 11.54 0 0 0 6.29 1.84c7.55 0 11.67-6.25 11.67-11.67 0-.18 0-.36-.02-.53.82-.58 1.5-1.3 2.06-2.13Z"/>
            </g>
            <defs>
                <clipPath id="a">
                <path fill="#fff" d="M0 0h20v20H0z"/>
                </clipPath>
            </defs>
        </symbol>
        <!-- Linkedin -->
        <symbol id="linkedin" viewBox="0 0 20 20">
            <g fill="currentColor" clip-path="url(#a)">
            <path d="M20 20v-7.34c0-3.58-.77-6.35-4.97-6.35a4.35 4.35 0 0 0-3.92 2.16h-.06V6.65H7.07V20h4.15v-6.61c0-1.74.33-3.43 2.48-3.43 2.13 0 2.16 1.99 2.16 3.54V20H20ZM.33 6.65h4.15V20H.33V6.65ZM2.4 0A2.4 2.4 0 0 0 0 2.4a2.42 2.42 0 0 0 2.4 2.43c1.33 0 2.4-1.1 2.4-2.43A2.4 2.4 0 0 0 2.4 0Z"/>
            </g>
            <defs>
                <clipPath id="a">
                <path fill="#fff" d="M0 0h20v20H0z"/>
                </clipPath>
            </defs>
        </symbol>
        <!-- Client-1 -->
        <symbol id="client1" viewBox="0 0 106 60">
            <path fill="currentColor" fill-rule="evenodd" d="m38 7 7 6.63H32V45.8h34V33.5l7 6.62V7H38Zm27.7 25.73L45.81 13.92H65.7v18.8Zm-6.18 8.38H37.38V19.46h1.57v20.18h20.57v1.47ZM42.61 50.1l-.82 1.68-.82-1.68h-.68l1.2 2.25v1.3h.61v-1.3l1.2-2.25h-.7Zm1.03 3.55.28-.82h1.38l.3.82h.64l-1.35-3.55h-.55l-1.35 3.55h.65Zm.97-2.8.52 1.48H44.1l.51-1.48Zm3.26 1.4a.8.8 0 0 0-.13.44c0 .3.1.55.31.73.21.19.5.28.85.28s.65-.1.9-.28l.2.23h.7l-.53-.61c.2-.28.3-.64.3-1.08h-.5c0 .24-.06.46-.16.65l-.68-.8.24-.19c.17-.12.3-.24.37-.37a.78.78 0 0 0-.14-.97.9.9 0 0 0-.63-.23.95.95 0 0 0-.69.24.87.87 0 0 0-.25.66c0 .12.03.24.08.36s.15.27.29.44a2.1 2.1 0 0 0-.53.5Zm1.6.78a.9.9 0 0 1-.56.2.58.58 0 0 1-.42-.15.53.53 0 0 1-.16-.4c0-.2.1-.36.3-.51l.07-.06.77.92Zm-.63-1.58c-.17-.2-.25-.37-.25-.51 0-.12.03-.22.1-.3a.35.35 0 0 1 .27-.11c.11 0 .2.03.27.1.07.06.1.14.1.23 0 .14-.05.26-.15.35l-.07.06-.27.18Zm5.78 1.94c.25-.22.39-.51.42-.9h-.61c-.03.26-.11.44-.23.55-.13.11-.3.16-.55.16a.69.69 0 0 1-.6-.3c-.14-.2-.21-.5-.21-.88v-.31c0-.38.07-.67.22-.86.14-.2.35-.3.62-.3.23 0 .4.06.52.17.12.11.2.3.23.55h.61a1.34 1.34 0 0 0-.41-.9 1.37 1.37 0 0 0-.95-.32c-.3 0-.55.07-.77.2-.22.15-.4.34-.51.6-.12.25-.18.55-.18.88v.34c0 .32.06.61.18.86s.28.44.5.57c.22.14.47.2.75.2.4 0 .73-.1.97-.31Zm3.63-.5c.12-.27.18-.57.18-.92v-.2c0-.35-.06-.65-.18-.9a1.36 1.36 0 0 0-1.3-.82c-.28 0-.54.07-.76.21-.22.14-.4.35-.52.61-.12.27-.19.57-.19.92v.2c0 .34.07.64.19.9s.3.46.52.6c.23.14.49.21.77.21.3 0 .55-.07.78-.2.22-.15.4-.35.51-.61Zm-.66-2.01c.15.2.23.51.23.9v.19c0 .4-.08.7-.23.91a.72.72 0 0 1-.63.31.74.74 0 0 1-.63-.31 1.55 1.55 0 0 1-.23-.91v-.2c0-.39.08-.68.23-.9a.73.73 0 0 1 .63-.3c.27 0 .48.1.63.3Z" clip-rule="evenodd"/>
        </symbol>
        <!-- Client-2 -->
        <symbol id="client2" viewBox="0 0 106 60">
            <path fill="currentColor" fill-rule="evenodd" d="M50.11 5.93h-.13l-.63-.02h-.46a23.94 23.94 0 0 0-1.3.03c-3.64.2-7.2 1.12-10.51 2.68l-.43.21v22.14l1.01-.34a34.33 34.33 0 0 1 10.9-1.91v2.91l-1.06.03h-.08a32.36 32.36 0 0 0-13.65 3.85V7.1a29.73 29.73 0 0 1 7.79-3.16A29.8 29.8 0 0 1 48.89 3h.43a21.1 21.1 0 0 1 5.13.65v2.87a22.62 22.62 0 0 0-3.54-.54h-.07c-.25-.02-.5-.05-.73-.05Zm5.04 2.93a31.47 31.47 0 0 0 9.67-.92 31.78 31.78 0 0 0 7.42-2.89v27.89a29.81 29.81 0 0 1-7.79 3.17c-2.4.61-4.86.93-7.33.94a22.4 22.4 0 0 1-5.57-.66V8.32a22.96 22.96 0 0 0 3.6.54Zm14.2.22-1.01.34a34.26 34.26 0 0 1-13.07 1.86l-.82-.05V34l.7.06a26.88 26.88 0 0 0 8.6-.77 27.76 27.76 0 0 0 5.16-1.87l.44-.2V9.08Z" clip-rule="evenodd"/>
            <path fill="currentColor" d="M35.74 45.21a1.5 1.5 0 0 0-1.13-.45c-.22 0-.44.04-.65.12a1.5 1.5 0 0 0-.95 1.47v3.8c0 .26.04.53.15.77.1.2.22.37.38.51.15.13.33.22.52.27.19.05.38.08.57.08a1.6 1.6 0 0 0 1.57-1.6v-.42h-1v.33c.01.12 0 .24-.05.34a.6.6 0 0 1-.14.22.7.7 0 0 1-.41.14.5.5 0 0 1-.47-.2.9.9 0 0 1-.14-.51v-3.54c0-.2.04-.39.13-.56a.5.5 0 0 1 .48-.23.53.53 0 0 1 .44.21.8.8 0 0 1 .17.5v.34h.98v-.39a1.79 1.79 0 0 0-.45-1.2Zm5.89-.04a1.77 1.77 0 0 0-1.72-.31c-.2.07-.37.17-.52.3-.17.16-.3.34-.39.54-.1.23-.15.48-.14.74v3.63c-.01.26.04.51.14.75.09.2.22.37.39.5.15.15.32.26.52.33a1.74 1.74 0 0 0 1.18 0 1.55 1.55 0 0 0 1.05-1.57v-3.64a1.64 1.64 0 0 0-.52-1.27Zm-.46 4.9a.66.66 0 0 1-.2.53.73.73 0 0 1-.93 0 .65.65 0 0 1-.2-.53v-3.63a.65.65 0 0 1 .2-.53.73.73 0 0 1 .93 0 .65.65 0 0 1 .2.53v3.63Zm8.2 1.63v-6.9h-.96l-1.25 3.65h-.02l-1.26-3.65h-.94v6.89h.98v-4.2h.02l.96 2.97h.5l.97-2.96h.01v4.19h.99Zm5.59-6.4c-.15-.18-.34-.3-.56-.38a2.18 2.18 0 0 0-.71-.11h-1.46v6.89h.98V49h.5c.31.02.61-.04.89-.18a1.65 1.65 0 0 0 .76-1.13 4.9 4.9 0 0 0-.04-1.76 1.47 1.47 0 0 0-.36-.64Zm-.5 2.1a.88.88 0 0 1-.1.35c-.06.1-.14.2-.25.24a1 1 0 0 1-.46.1h-.45v-2.35h.5a1 1 0 0 1 .45.09c.1.05.18.14.23.25a1 1 0 0 1 .08.38v.94Zm5.14-2.59h-.8l-1.5 6.89h.98l.29-1.48h1.33l.3 1.48h.97l-1.55-6.89Zm-.9 4.47.49-2.5h.01l.48 2.5h-.98Zm7.25-.32h-.02l-1.48-4.15h-.94v6.89h.98v-4.14h.02L66 51.7h.92v-6.9h-.98v4.15Zm6-4.15-.8 2.74h-.01l-.8-2.74h-1.03l1.35 3.98v2.9h.98v-2.9l1.35-3.98h-1.04ZM33 53.64h.47v1.33h.32v-1.33h.47v-.27H33v.27Zm3.98-.27-.62 1.6h.34l.13-.36h.64l.13.36h.35l-.63-1.6h-.34Zm-.05.97.21-.6.22.6h-.43Zm3.97.04h.38v.2a.61.61 0 0 1-.38.14.4.4 0 0 1-.34-.15.67.67 0 0 1-.12-.42c0-.35.15-.53.46-.53a.34.34 0 0 1 .36.25l.32-.06c-.07-.31-.3-.47-.68-.47a.8.8 0 0 0-.56.2.78.78 0 0 0-.23.62c0 .22.06.44.2.6a.78.78 0 0 0 .61.24 1 1 0 0 0 .68-.26v-.63h-.7v.27Zm4.02-1.01h-.32v1.6h1.12v-.27h-.8v-1.33Zm3.4 0h-.33v1.6h.33v-1.6Zm3.32 1.07-.66-1.07h-.31v1.6h.3v-1.04l.64 1.04h.32v-1.6h-.3v1.07Zm3-.17h.8V54h-.8v-.36h.85v-.27h-1.18v1.6h1.22v-.27h-.9v-.43Zm7.27-.27h-.63v-.63h-.32v1.6h.32v-.7h.63v.7h.32v-1.6h-.32V54Zm3.02.27h.8V54h-.8v-.36h.86v-.27h-1.18v1.6h1.21v-.27h-.89v-.43Zm4.09 0c.28-.05.42-.2.42-.45a.38.38 0 0 0-.15-.35.9.9 0 0 0-.47-.1h-.68v1.6h.32v-.67h.06c.07 0 .14.01.2.04.05.03.1.07.12.12l.35.5h.38l-.2-.3c-.08-.16-.2-.3-.35-.4Zm-.32-.22h-.24v-.4h.25a.9.9 0 0 1 .33.03.2.2 0 0 1-.01.33.91.91 0 0 1-.33.04Zm3.41.22h.8V54h-.8v-.36h.86v-.27h-1.18v1.6H73v-.27h-.89v-.43Z"/> 
        </symbol>
        <!-- Client-3 -->
        <symbol id="client3" viewBox="0 0 106 60">
            <path fill="currentColor" d="m36.4 49.1.05.01.04.02.22.21c-.17.17-.38.3-.61.4-.28.1-.58.15-.87.14-.28 0-.56-.04-.82-.13a1.67 1.67 0 0 1-1.01-.95 1.93 1.93 0 0 1 0-1.49 1.82 1.82 0 0 1 1.08-.95 2.57 2.57 0 0 1 1.63-.02c.21.08.41.2.58.34l-.18.22a.18.18 0 0 1-.05.04.13.13 0 0 1-.07.02.18.18 0 0 1-.08-.03l-.1-.06-.13-.07a1.55 1.55 0 0 0-.76-.16c-.2 0-.41.03-.6.1a1.29 1.29 0 0 0-.78.73 1.5 1.5 0 0 0-.12.58c0 .2.04.41.11.6a1.24 1.24 0 0 0 .76.72c.18.06.37.1.56.1l.33-.02a1.32 1.32 0 0 0 .72-.31.17.17 0 0 1 .1-.04Zm6.3-1.05c0 .26-.04.5-.14.74a1.77 1.77 0 0 1-1.06.95c-.53.18-1.12.18-1.66 0a1.91 1.91 0 0 1-.64-.38 1.68 1.68 0 0 1-.41-.58 1.8 1.8 0 0 1 .41-2.05c.19-.16.4-.28.64-.37a2.61 2.61 0 0 1 1.66 0c.24.09.46.22.65.38a1.7 1.7 0 0 1 .55 1.31Zm-.57 0c0-.2-.03-.4-.1-.59a1.22 1.22 0 0 0-.75-.72 1.92 1.92 0 0 0-1.2 0 1.3 1.3 0 0 0-.47.28 1.2 1.2 0 0 0-.3.44c-.13.39-.13.8 0 1.19a1.2 1.2 0 0 0 .76.72c.39.12.82.12 1.2 0 .18-.07.34-.16.47-.28.13-.13.23-.28.29-.44.07-.2.1-.4.1-.6Zm4.87.62.06.14.06-.14.07-.13 1.4-2.2c.02-.03.05-.06.07-.06a.37.37 0 0 1 .12-.02h.41v3.58h-.49v-2.86l-1.4 2.23a.2.2 0 0 1-.08.08.25.25 0 0 1-.12.03h-.08a.24.24 0 0 1-.12-.03.2.2 0 0 1-.08-.08l-1.44-2.25v2.88h-.48v-3.58h.42c.03 0 .07 0 .11.02.03.01.06.03.08.06l1.42 2.2.07.13Zm5.24-.17v1.34h-.54v-3.58h1.21c.23 0 .46.03.68.08.18.04.34.12.48.22.12.1.22.22.28.35.06.15.1.3.09.46a1 1 0 0 1-.4.81c-.14.11-.3.2-.48.24a2.3 2.3 0 0 1-.66.09l-.66-.01Zm0-.39h.66c.15 0 .29-.01.43-.05a.92.92 0 0 0 .3-.16.69.69 0 0 0 .25-.54.6.6 0 0 0-.05-.28.69.69 0 0 0-.2-.25 1.2 1.2 0 0 0-.73-.19h-.66v1.47Zm7.33 1.73h-.43a.2.2 0 0 1-.12-.03.22.22 0 0 1-.07-.08l-.37-.87h-1.86l-.39.87a.2.2 0 0 1-.2.12h-.42l1.64-3.59h.57l1.65 3.58Zm-2.7-1.33h1.54l-.65-1.45a2.37 2.37 0 0 1-.12-.34l-.06.19-.06.15-.65 1.45Zm5.06-2.23.08.06 2.39 2.7v-2.78h.48v3.58h-.27c-.04 0-.08 0-.11-.02a.3.3 0 0 1-.09-.07l-2.38-2.7v2.79h-.49v-3.58h.3c.02 0 .06 0 .09.02Zm6.97 2.14v1.42h-.54v-1.42l-1.51-2.16h.49a.2.2 0 0 1 .12.03l.07.08.94 1.4a2.15 2.15 0 0 1 .17.31l.07-.15.1-.16.92-1.4a.38.38 0 0 1 .07-.08.18.18 0 0 1 .12-.04h.5l-1.52 2.17Zm-22.17-8.16.72.06a19.95 19.95 0 0 0 8.95-6.73 16.11 16.11 0 0 0 3.18-9.9l-4.06-3.52c.83 3.73.44 7.58-1.11 11.13a20.96 20.96 0 0 1-7.68 8.96Z"/>
            <path fill="currentColor" d="m45.28 40.1.11.01c3.7-2.3 6.53-5.51 8.1-9.23a17.33 17.33 0 0 0 .76-11.59l-5.78-5.01a21.53 21.53 0 0 1 2.71 13.3 22.67 22.67 0 0 1-5.9 12.51Zm19.59-12.27a18.04 18.04 0 0 1-6.8 9.89c-1 .76-2.08 1.43-3.22 2.01a19.87 19.87 0 0 0 7.5-3.68 16.65 16.65 0 0 0 4.86-6.2l-2.34-2.02Z"/>
            <path fill="currentColor" d="m63.95 27.26-3.34-2.9a16.76 16.76 0 0 1-3.13 9.35 20.38 20.38 0 0 1-8.16 6.67h.02c.75 0 1.5-.04 2.24-.11a20.61 20.61 0 0 0 8.07-5.15 16.95 16.95 0 0 0 4.3-7.86Zm-18.18-15.1L41.79 8.7A18.75 18.75 0 0 0 33 14.72 15 15 0 0 0 29.68 24a15.14 15.14 0 0 0 4.03 10.09 19.39 19.39 0 0 0 10.31 5.81 21.84 21.84 0 0 0 6.1-13.62 21.22 21.22 0 0 0-4.35-14.12Zm27.37 14.57c-.01-4.35-2-8.5-5.54-11.58a20.45 20.45 0 0 0-13.32-4.81c-2.31 0-4.6.37-6.76 1.1l24.36 21.15a14.35 14.35 0 0 0 1.26-5.86Z"/>
        </symbol>
        <!-- Client-4 -->
        <symbol id="client4" viewBox="0 0 106 60">
            <path fill="currentColor" d="M24.15 21.1c-2.4 0-4.35 1.73-4.35 3.86 0 2.14 1.95 3.86 4.34 3.86 2.4 0 4.35-1.72 4.35-3.86 0-2.13-1.95-3.86-4.34-3.86Zm32.05-1.23a10.64 10.64 0 0 0-3.7-7.9 13.43 13.43 0 0 0-8.87-3.27c-3.33 0-6.53 1.18-8.88 3.28a10.6 10.6 0 0 0-3.7 7.89v16.32S56.2 33.7 56.2 19.87ZM11 41.55c0 2.06.93 4.03 2.57 5.49a9.35 9.35 0 0 0 6.17 2.28c2.32 0 4.54-.82 6.18-2.28a7.38 7.38 0 0 0 2.57-5.49V30.2S11 31.93 11 41.55Zm8.74 2.03c-.45 0-.9-.11-1.27-.34a2.1 2.1 0 0 1-.84-.91 1.83 1.83 0 0 1-.13-1.18c.09-.4.3-.75.63-1.04a2.4 2.4 0 0 1 1.17-.56c.44-.07.9-.03 1.32.12.42.15.78.41 1.03.75a1.88 1.88 0 0 1-.28 2.57 2.38 2.38 0 0 1-1.63.6Zm17.68-1.12h-1.69v1.75h-.88v-4.27h2.78v.71h-1.9v1.1h1.69v.71Zm4.22-.29c0 .42-.07.79-.22 1.1a1.67 1.67 0 0 1-1.59 1 1.7 1.7 0 0 1-1.6-.98 2.51 2.51 0 0 1-.22-1.1V42c0-.43.07-.8.23-1.11a1.7 1.7 0 0 1 1.59-1c.35 0 .67.09.94.26.28.17.5.42.64.74.16.31.23.68.23 1.1v.2Zm-.89-.2c0-.44-.08-.78-.24-1.01a.78.78 0 0 0-.68-.35c-.3 0-.53.11-.69.34-.16.23-.24.57-.24 1.01v.21c0 .44.08.77.24 1.01.16.24.4.36.7.36.29 0 .51-.11.67-.34.16-.23.24-.57.24-1.01v-.21Zm3.74 1.12c0-.17-.06-.3-.17-.38a2.25 2.25 0 0 0-.64-.28c-.3-.1-.54-.2-.72-.3-.48-.26-.73-.61-.73-1.05 0-.24.07-.44.2-.62s.31-.32.56-.43a2.1 2.1 0 0 1 1.63.02 1.23 1.23 0 0 1 .76 1.15h-.88c0-.2-.07-.35-.19-.45a.75.75 0 0 0-.52-.17.8.8 0 0 0-.5.14.43.43 0 0 0-.18.36c0 .14.07.25.21.35.14.09.35.18.62.26.5.15.86.34 1.1.56.22.22.33.5.33.83 0 .37-.13.66-.41.87-.28.21-.66.32-1.13.32a2.2 2.2 0 0 1-.9-.18 1.27 1.27 0 0 1-.83-1.22h.88c0 .47.29.7.85.7.2 0 .37-.04.49-.12.11-.1.17-.21.17-.36Zm4.7-2.44h-1.31v3.56H47v-3.56h-1.3v-.7h3.48v.7Zm3.06 1.7h-1.68v1.15h1.98v.7h-2.86v-4.26h2.85v.71h-1.97v1.02h1.68v.69Zm2.4.3h-.7v1.56h-.89v-4.27h1.59c.5 0 .89.11 1.16.34.28.22.41.54.41.95 0 .3-.06.53-.19.73-.12.2-.31.35-.57.46l.92 1.75v.04h-.94l-.8-1.56Zm-.7-.72h.7c.22 0 .4-.05.51-.16a.6.6 0 0 0 .18-.47c0-.2-.05-.36-.17-.47-.11-.12-.29-.18-.52-.18h-.7v1.28Zm5.32.77v1.5h-.88v-4.26h1.66c.32 0 .6.06.85.18.24.11.43.28.56.5.13.21.2.46.2.73 0 .42-.15.75-.44 1-.28.23-.68.35-1.18.35h-.77Zm0-.7h.78c.23 0 .41-.06.53-.17.13-.11.19-.27.19-.47a.7.7 0 0 0-.19-.5.69.69 0 0 0-.5-.2h-.81v1.33Zm5.56.36h-1.69v1.14h1.98v.7h-2.86v-4.26h2.85v.71h-1.97v1.02h1.69v.69Zm4.08-1.7H67.6v3.55h-.88v-3.56h-1.29v-.7h3.48v.7Zm3.07 1.7h-1.7v1.14h1.99v.7H69.4v-4.26h2.85v.71H70.3v1.02h1.69v.69Zm2.38.29h-.7v1.56h-.88v-4.27h1.59c.5 0 .9.11 1.17.34.27.22.4.54.4.95 0 .3-.06.53-.18.73-.13.2-.32.35-.58.46l.93 1.75v.04h-.95l-.8-1.56Zm-.7-.72h.71c.22 0 .4-.05.52-.16a.6.6 0 0 0 .18-.47c0-.2-.06-.36-.18-.47-.1-.12-.28-.18-.52-.18h-.7v1.28Zm5.17 1.16c0-.17-.06-.3-.18-.38a2.25 2.25 0 0 0-.63-.28c-.3-.1-.55-.2-.72-.3-.49-.26-.73-.61-.73-1.05 0-.24.06-.44.2-.62.12-.18.31-.32.55-.43a2.18 2.18 0 0 1 1.64.02c.24.1.42.26.55.47.13.2.2.43.2.68h-.88c0-.2-.06-.35-.18-.45a.75.75 0 0 0-.52-.17.8.8 0 0 0-.5.14.43.43 0 0 0-.18.36c0 .14.07.25.2.35.15.09.35.18.63.26.5.15.86.34 1.09.56.23.22.34.5.34.83 0 .37-.14.66-.42.87-.28.21-.65.32-1.13.32a2.2 2.2 0 0 1-.9-.18 1.27 1.27 0 0 1-.83-1.22h.89c0 .47.28.7.84.7a.9.9 0 0 0 .5-.12c.11-.1.17-.21.17-.36Z"/>
        </symbol>
        <!-- Client-5 -->
        <symbol id="client5" viewBox="0 0 106 60">
            <path fill="currentColor" d="M26.76 44.74c.24.27.37.62.36.97.02.23-.03.46-.13.68-.1.21-.24.4-.43.56-.48.32-1.06.48-1.66.45H22v-6.2h2.84a2.6 2.6 0 0 1 1.58.42 1.4 1.4 0 0 1 .55 1.16c.02.34-.1.67-.33.94-.22.25-.52.42-.86.49.38.06.73.25.98.53Zm-3.4-.94h1.2c.28.02.56-.05.78-.2a.6.6 0 0 0 .2-.28c.05-.1.07-.22.06-.33a.7.7 0 0 0-.05-.33.76.76 0 0 0-.2-.27 1.25 1.25 0 0 0-.8-.21h-1.2v1.62Zm2.1 2.38a.8.8 0 0 0 .29-.63.72.72 0 0 0-.07-.35.79.79 0 0 0-.23-.29 1.34 1.34 0 0 0-.82-.22h-1.28v1.7h1.3c.28.02.57-.06.8-.22Zm7.11 1.22L31 44.98h-.6v2.42h-1.36v-6.2h2.58a2.7 2.7 0 0 1 1.8.53 1.86 1.86 0 0 1 .2 2.56c-.33.34-.77.56-1.24.63l1.68 2.48h-1.48Zm-2.18-3.27h1.12c.77 0 1.16-.3 1.16-.93a.85.85 0 0 0-.07-.38.92.92 0 0 0-.22-.32 1.28 1.28 0 0 0-.87-.25h-1.13l.01 1.88Zm9.62 2.02H37.3l-.48 1.25h-1.43l2.5-6.13h1.54l2.48 6.13h-1.43L40 46.15Zm-.36-.94-1-2.61-.99 2.61h1.99Zm9.67 2.19h-1.35l-3.03-4.21v4.2H43.6v-6.18h1.35l3.03 4.23v-4.23h1.35v6.19Zm7.71-1.49c-.28.47-.7.85-1.22 1.1a4.4 4.4 0 0 1-1.9.39h-2.4v-6.2h2.4a4.4 4.4 0 0 1 1.9.39c.52.24.94.61 1.22 1.08a3.35 3.35 0 0 1 0 3.24Zm-1.54-.14c.38-.41.6-.94.6-1.48s-.22-1.07-.6-1.48a2.49 2.49 0 0 0-1.7-.52h-.93v4h.94c.61.04 1.22-.15 1.69-.52Zm-14.63-39s17.43 6.02 17.06 14.75v14.75S40.5 30.24 40.86 21.52V6.77Zm32.6 26.05a25.3 25.3 0 0 1 11.08-3.74v-4.62a22.4 22.4 0 0 0-11.08 8.36Z"/>
            <path fill="currentColor" d="M71.48 34.2a23.1 23.1 0 0 1 13.06-10.7V10.17S59.7 18.78 60.23 31.2v21s1.1-.38 2.85-1.1c0-.68 0-1.35.08-2.03a21.28 21.28 0 0 1 8.32-14.86Z"/>
            <path fill="currentColor" d="M69.12 42.01c.13-1.45.42-2.9.87-4.3a19.43 19.43 0 0 0-5.26 12.7c1.41-.63 3.05-1.4 4.78-2.31-.44-2-.57-4.05-.39-6.09Zm.98.08a19.5 19.5 0 0 0 .31 5.5c6.79-3.71 14.41-9.45 14.12-16.4v-.6a23.2 23.2 0 0 0-12.91 5.52 19.26 19.26 0 0 0-1.51 5.98Z"/>
        </symbol>
        <!-- Client-6 -->
        <symbol id="client6" viewBox="0 0 106 60">
            <path fill="currentColor" d="M53.42 27.4a2.95 2.95 0 0 1-.6-1.98v-2.88c0-.89.2-1.56.6-2.02.4-.46 1.1-.69 2.07-.68.91 0 1.57.2 1.95.58.42.5.62 1.11.58 1.73v.67h-1.64v-.68c0-.23-.01-.45-.05-.67a.65.65 0 0 0-.23-.4.95.95 0 0 0-.6-.16 1 1 0 0 0-.62.17.77.77 0 0 0-.28.44c-.04.23-.06.47-.06.7v3.5c-.03.35.05.68.21.99.08.1.2.19.33.24a.9.9 0 0 0 .42.05.9.9 0 0 0 .58-.15.7.7 0 0 0 .25-.43c.03-.23.05-.47.05-.7V25h1.64v.65c.04.64-.16 1.28-.57 1.81-.38.43-1.02.64-1.96.64-.95 0-1.66-.23-2.07-.7Zm6.84.04c-.42-.45-.62-1.1-.62-1.97v-3.03c0-.86.2-1.5.62-1.95.41-.44 1.1-.66 2.08-.65.96 0 1.65.21 2.06.65.42.44.63 1.09.63 1.95v3.03c0 .86-.21 1.51-.63 1.96-.42.46-1.1.68-2.06.68s-1.67-.23-2.08-.67Zm2.84-.73c.15-.28.22-.59.2-.9V22.1c.02-.3-.05-.6-.2-.88a.78.78 0 0 0-.33-.24.9.9 0 0 0-.43-.05.92.92 0 0 0-.44.05.79.79 0 0 0-.34.24 1.8 1.8 0 0 0-.2.88v3.73c-.01.3.05.62.2.9a1.16 1.16 0 0 0 1.19.22c.14-.05.25-.13.35-.22v-.02Zm3.9-6.79h1.77l1.33 5.6 1.36-5.6h1.72l.17 8.08h-1.27l-.14-5.61-1.3 5.61H69.6l-1.36-5.63-.12 5.63h-1.29l.16-8.08Zm8.33 0h2.75c1.59 0 2.38.77 2.38 2.3 0 1.46-.83 2.2-2.5 2.2h-.94V28h-1.7l.01-8.08Zm2.35 3.46c.17.01.34 0 .5-.04.16-.05.31-.12.44-.22.19-.27.28-.6.24-.91 0-.25-.02-.5-.08-.73a.6.6 0 0 0-.13-.23.7.7 0 0 0-.21-.16 1.8 1.8 0 0 0-.76-.13h-.66v2.42h.66Zm5.22-3.46h1.83L86.61 28h-1.59l-.37-1.86h-1.63L82.64 28h-1.6l1.87-8.08Zm1.57 5.28-.64-3.39-.63 3.4h1.27Zm3.65-5.28h1.19l2.27 4.61v-4.6H93V28h-1.13l-2.29-4.8V28h-1.46v-8.08Zm8.18 5-1.9-4.99H96l1.15 3.2 1.08-3.2h1.56l-1.86 5V28h-1.64v-3.08Zm-40.25 6.61v.42h-1.39v3.29h-.58v-3.29h-1.4v-.42h3.37Zm4.35 3.71h-.46a.2.2 0 0 1-.12-.04.2.2 0 0 1-.08-.08l-.4-.88h-1.92l-.4.88a.24.24 0 0 1-.06.1.2.2 0 0 1-.13.03h-.45l1.7-3.7h.6l1.71 3.69Zm-2.82-1.38h1.6l-.68-1.5a2.7 2.7 0 0 1-.12-.36l-.07.2-.06.16-.67 1.5Zm5.74 1.01h.32a1.92 1.92 0 0 0 .52-.1l.22-.1v-.83h-.67a.14.14 0 0 1-.1-.03.09.09 0 0 1-.02-.03l-.01-.04v-.28h1.32v1.42a2.58 2.58 0 0 1-1.14.37 2.77 2.77 0 0 1-1.36-.11 2.09 2.09 0 0 1-.68-.39 1.8 1.8 0 0 1-.43-.58 1.9 1.9 0 0 1-.16-.77 1.7 1.7 0 0 1 .6-1.36c.18-.17.42-.3.67-.39a2.85 2.85 0 0 1 1.38-.1 2.33 2.33 0 0 1 .75.24c.1.05.2.12.3.19l-.17.23a.14.14 0 0 1-.06.05.17.17 0 0 1-.07.02.22.22 0 0 1-.1-.03.7.7 0 0 1-.17-.09 2.13 2.13 0 0 0-.97-.21 2 2 0 0 0-.66.1c-.2.07-.36.17-.5.3a1.3 1.3 0 0 0-.32.45c-.15.4-.15.84 0 1.24a1.45 1.45 0 0 0 1.5.83Zm5.42-.06h1.85v.43h-2.42v-3.7h.58l-.01 3.27Zm3.78.43h-.58v-3.7h.58v3.7Zm2.16-3.69c.04.02.07.04.09.07l2.48 2.79v-2.89h.5v3.72h-.28c-.05 0-.09 0-.13-.02a.33.33 0 0 1-.09-.07l-2.48-2.8v2.89h-.49v-3.7h.4Zm7.36-.02v.4h-2.06v1.23h1.67v.4h-1.67v1.26h2.06v.4h-2.66v-3.69h2.66ZM21.16 8.66l25.8 6.32v22.16l-25.8-6.32V8.66Zm-1.65-1.9V31.9l29.1 7.14V13.9L19.5 6.77Z"/>
            <path fill="currentColor" d="M35.1 50.7 6 43.54V18.43l29.1 7.14v25.12Z"/>
            <path fill="currentColor" d="m19.99 8.37 25.46 6.25-10.83 9.34-25.46-6.24 10.83-9.35Zm-.48-1.6L6 18.43l29.1 7.14L48.6 13.9 19.5 6.77Zm17.23 42.51 11.87-10.25-11.87-2.91v13.16Z"/>
        </symbol>

        <symbol id="menu-btn" fill="currentColor" viewBox="0 0 40 40">
            <path fill="currentColor" fill-rule="evenodd" d="M8 14.7V12h24v2.7H8Zm0 6.6h24v-2.6H8v2.6ZM8 28h24v-2.7H8V28Z" clip-rule="evenodd"/>
        </symbol>
    </defs>
</svg>